{
  "asset": {
    "generator": "Khronos glTF Blender I/O v1.7.33",
    "version": "2.0"
  },
  "scene": 0,
  "scenes": [
    {
      "name": "Scene",
      "nodes": [
        0
      ]
    }
  ],
  "nodes": [
    {
      "mesh": 0,
      "name": "1TUP_stab",
      "scale": [
        -0.10393106937408447,
        -0.10393106937408447,
        -0.10393106937408447
      ],
      "translation": [
        -0.042519569396972656,
        0.008481575176119804,
        -0.007753137499094009
      ]
    }
  ],
  "materials": [
    {
      "doubleSided": true,
      "name": "Material",
      "pbrMetallicRoughness": {
        "baseColorFactor": [
          0,
          0,
          0,
          1
        ],
        "metallicFactor": 0,
        "roughnessFactor": 0.4000000059604645
      }
    }
  ],
  "meshes": [
    {
      "name": "1TUP_stab",
      "primitives": [
        {
          "attributes": {
            "POSITION": 0,
            "NORMAL": 1
          },
          "indices": 2,
          "material": 0
        }
      ]
    }
  ],
  "accessors": [
    {
      "bufferView": 0,
      "componentType": 5126,
      "count": 39487,
      "max": [
        37.549163818359375,
        31.948606491088867,
        39.36306381225586
      ],
      "min": [
        -41.491268157958984,
        -40.63431930541992,
        -38.87971496582031
      ],
      "type": "VEC3"
    },
    {
      "bufferView": 1,
      "componentType": 5126,
      "count": 39487,
      "type": "VEC3"
    },
    {
      "bufferView": 2,
      "componentType": 5123,
      "count": 39489,
      "type": "SCALAR"
    }
  ],
  "bufferViews": [
    {
      "buffer": 0,
      "byteLength": 473844,
      "byteOffset": 0
    },
    {
      "buffer": 0,
      "byteLength": 473844,
      "byteOffset": 473844
    },
    {
      "buffer": 0,
      "byteLength": 78980,
      "byteOffset": 947688
    }
  ],
  "buffers": [
    {
      "uri": "protien_data.bin",
      "byteLength": 1026668
    }
  ]
}